<svg xmlns="http://www.w3.org/2000/svg" width="44" height="44" viewBox="0 0 44 44">
    <g data-name="Jd Rating Certificate">
        <path data-name="Rectangle 116744" style="fill:none" d="M0 0h44v44H0z"/>
        <g data-name="quality (1)" transform="translate(-2.745 6.107)">
            <path data-name="Path 461238" d="M35.25 13.913c0 1.21 1.181 2.592.828 3.683-.369 1.129-2.149 1.552-2.833 2.493a2.255 2.255 0 0 0-.166.277c-.508.992-.466 2.558-1.332 3.188-.94.684-2.623-.011-3.755.355a2.665 2.665 0 0 0-.731.4c-.808.589-1.584 1.516-2.515 1.516s-1.71-.929-2.515-1.516a2.7 2.7 0 0 0-.731-.4c-1.129-.369-2.815.328-3.755-.355-.866-.628-.823-2.2-1.332-3.188a2.254 2.254 0 0 0-.166-.277c-.684-.94-2.466-1.363-2.833-2.493-.353-1.091.828-2.473.828-3.683s-1.181-2.592-.828-3.683c.369-1.129 2.149-1.552 2.833-2.493s.547-2.772 1.5-3.465 2.623.011 3.755-.355C22.586 3.564 23.533 2 24.743 2s2.157 1.564 3.249 1.919c1.129.369 2.815-.328 3.755.355s.808 2.511 1.5 3.465 2.466 1.363 2.833 2.493c.353 1.089-.828 2.47-.828 3.681z" style="fill:#ffe36e"/>
            <circle data-name="Ellipse 16332" cx="8.174" cy="8.174" r="8.174" transform="translate(16.569 5.739)" style="fill:#ffaa39"/>
            <path data-name="Path 461239" d="m48.2 33.524.925 1.874a.713.713 0 0 0 .533.389l2.07.3a.71.71 0 0 1 .394 1.21l-1.5 1.46a.715.715 0 0 0-.2.628l.353 2.061a.709.709 0 0 1-1.03.747l-1.845-.97a.711.711 0 0 0-.659 0l-1.849.972a.71.71 0 0 1-1.03-.747l.353-2.061a.7.7 0 0 0-.2-.628l-1.5-1.46a.71.71 0 0 1 .394-1.21l2.07-.3a.7.7 0 0 0 .533-.389l.925-1.874a.708.708 0 0 1 1.271 0z" transform="translate(-22.823 -24.124)" style="fill:#fffeeb"/>
            <g data-name="Group 405926">
                <path data-name="Path 461240" d="m23.462 87.574-2.135 5.476-2.812-2.22-3.575-.268 2.7-6.932c.508.992.466 2.558 1.332 3.188.94.684 2.623-.011 3.755.355a2.709 2.709 0 0 1 .735.401z" transform="translate(-1.235 -63.264)" style="fill:#3980e5"/>
                <path data-name="Path 461241" d="m83.692 90.562-3.575.268-2.812 2.22-2.135-5.476a2.7 2.7 0 0 1 .731-.4c1.129-.369 2.815.328 3.755-.355.866-.628.823-2.2 1.332-3.188z" transform="translate(-47.914 -63.264)" style="fill:#3980e5"/>
            </g>
        </g>
    </g>
</svg>
