<svg xmlns="http://www.w3.org/2000/svg" width="234.51" height="171.057" viewBox="0 0 234.51 171.057">
    <defs>
        <clipPath id="h4flke4zoa">
            <circle data-name="Ellipse 16090" cx="27.86" cy="27.86" r="27.86" transform="rotate(-45 47.56 19.7)" style="fill:none"/>
        </clipPath>
        <clipPath id="3r7pbupvmb">
            <path data-name="Rectangle 115720" style="fill:none" d="M0 0h6.192v3.922H0z"/>
        </clipPath>
        <clipPath id="pzptxpp6nc">
            <path data-name="Rectangle 115723" style="fill:none" d="M0 0h137.789v108.024H0z"/>
        </clipPath>
        <clipPath id="kozflpolcd">
            <circle data-name="Ellipse 16091" cx="24.377" cy="24.377" r="24.377" transform="rotate(-45 41.615 17.238)" style="fill:none"/>
        </clipPath>
        <clipPath id="kj8yxd4yse">
            <path data-name="Rectangle 115724" style="fill:none" d="M0 0h6.501v2.619H0z"/>
        </clipPath>
        <clipPath id="aj6nbo5opf">
            <path data-name="Path 343911" d="M494.768 584.092a26.457 26.457 0 1 0 26.457-26.457 26.457 26.457 0 0 0-26.457 26.457" transform="translate(-494.768 -557.635)" style="fill:none"/>
        </clipPath>
        <clipPath id="ruok2msnfg">
            <path data-name="Rectangle 115726" style="fill:none" d="M0 0h7.092v3.267H0z"/>
        </clipPath>
        <clipPath id="ts78xw5jmh">
            <path data-name="Rectangle 9183" style="fill:none" d="M0 0h53.628v20.137H0z"/>
        </clipPath>
    </defs>
    <g data-name="Group 333367">
        <g data-name="Group 200534" transform="translate(78.739 81.926)">
            <circle data-name="Ellipse 16093" cx="38.306" cy="38.306" r="38.306" style="fill:#193697"/>
            <circle data-name="Ellipse 16092" cx="30.219" cy="30.219" r="30.219" transform="translate(7.661 7.661)" style="fill:#13a2f8"/>
        </g>
        <path data-name="Line 54" transform="translate(9.42 170.057)" style="stroke-width:2px;stroke:#fcebde;stroke-linecap:round;fill:none" d="M0 0h224.09"/>
        <g data-name="Group 200529">
            <g data-name="Group 200492">
                <g data-name="Group 200491" transform="translate(82.288)" style="clip-path:url(#h4flke4zoa)">
                    <path data-name="Path 343860" d="M970.7 27.859A27.86 27.86 0 1 1 942.837 0a27.86 27.86 0 0 1 27.86 27.86" transform="translate(-903.256 11.541)" style="fill:#fde5d6"/>
                    <path data-name="Path 343861" d="m1183.4 360.979-1.548-.33V356.7h-6.191v3.948l-1.548.33 1.548 9.772h6.191z" transform="translate(-1139.152 -313.167)" style="fill:#dd7734"/>
                    <g data-name="Group 200490" style="mix-blend-mode:multiply;isolation:isolate">
                        <g data-name="Group 200489">
                            <g data-name="Group 200488" style="clip-path:url(#3r7pbupvmb)" transform="translate(36.512 43.56)">
                                <path data-name="Path 343862" d="M1191.372 356.989v1.745l6.191 2.178v-3.922z" transform="translate(-1191.372 -356.989)" style="fill:#e4452d"/>
                            </g>
                        </g>
                    </g>
                    <path data-name="Rectangle 115721" transform="translate(33.369 54.798)" style="fill:#f09d66" d="M0 0h12.477v13.03H0z"/>
                    <path data-name="Rectangle 115722" transform="translate(33.343 54.798)" style="fill:#56d4fc" d="M0 0h12.477v13.03H0z"/>
                    <path data-name="Path 343863" d="M1256.082 421.222c-.046-2.846-.113-8.07-.208-8.916-.331-2.922-1.06-6.381-3.634-8.852a10 10 0 0 0-7.156-2.562v.006l-.028-.006-2.046 9.4v10.931z" transform="translate(-1201.864 -353.394)" style="fill:#13a2f8"/>
                    <path data-name="Path 343864" d="M1074.325 400.892a10 10 0 0 0-7.156 2.562c-2.574 2.471-3.3 5.929-3.634 8.852-.1.846-.162 6.07-.208 8.916h13.045v-10.931l-2.046-9.4z" transform="translate(-1038.299 -353.394)" style="fill:#13a2f8"/>
                    <path data-name="Path 343865" d="m1144.292 397.634 3.472 1.283-1.363 1.857 3.662 4.3-2.145-9.913z" transform="translate(-1112.003 -348.174)" style="fill:#193697"/>
                    <path data-name="Path 343866" d="m1248.791 397.634-3.626-2.477-2.157 9.913 3.674-4.3-1.363-1.857z" transform="translate(-1201.865 -348.174)" style="fill:#193697"/>
                    <path data-name="Path 343867" d="M1145.171 126.4v-3.219c0-3.419-3.958-7.739-7.092-7.739s-7.092 4.32-7.092 7.739v3.219a1.562 1.562 0 0 0-1.576 1.548v1.61a1.562 1.562 0 0 0 1.576 1.548c0 3.419 3.958 7.863 7.092 7.863s7.092-4.443 7.092-7.863a1.562 1.562 0 0 0 1.576-1.548v-1.61a1.562 1.562 0 0 0-1.576-1.548" transform="translate(-1098.457 -93.547)" style="fill:#dd7734"/>
                    <path data-name="Path 343868" d="M1191.4 244.508c0 .378-.15.685-.334.685s-.334-.307-.334-.685.15-.685.334-.685.334.307.334.685" transform="translate(-1154.277 -210.413)" style="fill:#4c0c0c"/>
                    <path data-name="Path 343869" d="M1258.345 244.508c0 .378-.15.685-.334.685s-.334-.307-.334-.685.149-.685.334-.685.334.307.334.685" transform="translate(-1215.218 -210.413)" style="fill:#4c0c0c"/>
                    <path data-name="Path 343870" d="M1217.252 258.092a.865.865 0 0 1-.859-.467.783.783 0 0 1 .336-.912c.335-.264.443-1.856.413-2.9l.464-.013c.013.46.047 2.78-.59 3.281-.162.127-.236.269-.194.37s.241.209.564.172l.053.461a1.662 1.662 0 0 1-.188.011" transform="translate(-1177.596 -219.492)" style="fill:#920b10"/>
                    <path data-name="Path 343871" d="M1173.927 227.224s-1.838-.931-2.9.352c0 0 1.116-1.807 2.766-.878s.131.526.131.526" transform="translate(-1136.342 -194.582)" style="fill:#4c0c0c"/>
                    <path data-name="Path 343872" d="M1247.229 227.224s1.838-.931 2.9.352c0 0-1.116-1.807-2.766-.878s-.131.526-.131.526" transform="translate(-1205.126 -194.582)" style="fill:#4c0c0c"/>
                    <path data-name="Path 343873" d="M1127.021 107.756a10.627 10.627 0 0 0-2.549 3.249 21.223 21.223 0 0 0-1.505 4.6l-.474 1.936a.887.887 0 0 1 .868-.186 8.025 8.025 0 0 0 .9.245 2.662 2.662 0 0 0 1.873-.87l1.475-1.253a10.67 10.67 0 0 1 1.225-.943 17.358 17.358 0 0 1 1.549-.789 13.854 13.854 0 0 0 4.769-3.885 2.587 2.587 0 0 0 .7-2.461 1.947 1.947 0 0 0-.584-.724 4.586 4.586 0 0 0-2.122-.745 4.411 4.411 0 0 0-1.856-.194 8.453 8.453 0 0 0-4.268 2.02" transform="translate(-1092.159 -84.681)" style="fill:#040405"/>
                    <path data-name="Path 343874" d="M1226.764 110.648a10.045 10.045 0 0 1 2.8 2.49 9.279 9.279 0 0 1 1.036 1.388 6.735 6.735 0 0 1 .8 3.272 20.123 20.123 0 0 1-.34 3.383 4.432 4.432 0 0 0-1-.819 30.979 30.979 0 0 1-3.981-3.226 12.923 12.923 0 0 1-1.441-1.577c-.861-1.153-1.835-3.087-1.556-4.58.272-1.458 2.812-.79 3.679-.332" transform="translate(-1183.684 -88.676)" style="fill:#040405"/>
                    <path data-name="Path 343875" d="M1177.122 66.147a2.6 2.6 0 0 1 .086-2.305 3.6 3.6 0 0 1 1.06-1.13 6.105 6.105 0 0 1 4.682-1.045 4.546 4.546 0 0 1 2.674 1.486 3.051 3.051 0 0 1 .578 2.925 2.312 2.312 0 0 1-2.456 1.494 8.612 8.612 0 0 1-1.215-.429 4.474 4.474 0 0 0-3.117.307 2.01 2.01 0 0 1-2.294-1.3" transform="translate(-1141.679 -44.5)" style="fill:#040405"/>
                    <path data-name="Path 343876" d="M1205.614 314.676a2.912 2.912 0 0 0 1.66.62 2.463 2.463 0 0 0 1.561-.62s-.52 1.759-1.611 1.759-1.611-1.759-1.611-1.759" transform="translate(-1167.824 -274.911)" style="fill:#fff"/>
                </g>
            </g>
            <g data-name="Group 200494">
                <g data-name="Group 200493" style="clip-path:url(#pzptxpp6nc)" transform="translate(32.458 29.208)">
                    <path data-name="Path 343877" d="M1152.328 223.8h-1.569a4.637 4.637 0 0 0-2.162-.426c-1.616 0-2.713.31-3.275.914a2.135 2.135 0 0 0-2.219 0c-.564-.6-1.659-.91-3.271-.91a4.637 4.637 0 0 0-2.162.426h-1.581v1.131l.519.182a2.614 2.614 0 0 0-.075.634c0 1.4.342 3.272 3.3 3.272 2.64 0 3.333-1.625 3.662-3.214a1.917 1.917 0 0 0 .022-.686 1.271 1.271 0 0 1 .693-.154 1.254 1.254 0 0 1 .7.161 1.92 1.92 0 0 0 .023.68c.329 1.589 1.022 3.214 3.662 3.214 2.956 0 3.3-1.868 3.3-3.272a2.608 2.608 0 0 0-.076-.638l.509-.178zm-9.4 1.888c-.342 1.652-1 2.751-3.095 2.751-2.389 0-2.719-1.294-2.719-2.692 0-.443 0-1.793 2.719-1.793 1.875 0 2.615.425 2.9.781a1.09 1.09 0 0 1 .19.953m5.67 2.751c-2.1 0-2.752-1.1-3.095-2.751a1.091 1.091 0 0 1 .19-.953c.29-.356 1.029-.781 2.9-.781 2.718 0 2.718 1.349 2.718 1.793 0 1.4-.329 2.692-2.718 2.692" transform="translate(-1054.705 -221.003)" style="fill:#fff"/>
                </g>
            </g>
        </g>
        <g data-name="Group 200499">
            <g data-name="Group 200498" transform="translate(0 34.142)" style="clip-path:url(#kozflpolcd)">
                <path data-name="Path 343879" d="M48.755 24.377A24.377 24.377 0 1 1 24.377 0a24.377 24.377 0 0 1 24.378 24.377" transform="translate(10.097 10.098)" style="fill:#fde5d6"/>
                <path data-name="Path 343880" d="m264.788 335.006-1.013-.467v-3.22h-6.5v3.22l-1.017.439.271 9.132h.746v1.4h6.5v-1.4h.742z" transform="translate(-226.048 -295.219)" style="fill:#dd7734"/>
                <g data-name="Group 200497" style="mix-blend-mode:multiply;isolation:isolate">
                    <g data-name="Group 200496">
                        <g data-name="Group 200495" style="clip-path:url(#kj8yxd4yse)" transform="translate(31.225 36.427)">
                            <path data-name="Path 343881" d="M275.7 335.49v2.619l-6.5-1.119v-1.5z" transform="translate(-269.198 -335.49)" style="fill:#e4452d"/>
                        </g>
                    </g>
                </g>
                <path data-name="Path 343882" d="M134.139 391.194a34.943 34.943 0 0 0-2.585-10.2c-1.192-2.6-4.537-3.24-9.331-4.889a46.077 46.077 0 0 1-.517-.181c0 .008 0 .019-.005.027-.316 1.785-1.212 4.1-3.99 4.367-2.778-.271-3.675-2.582-3.99-4.367 0-.008 0-.019-.005-.027-.173.062-.347.122-.517.181-4.794 1.65-8.139 2.292-9.331 4.889a34.944 34.944 0 0 0-2.584 10.2l16.429 6.5z" transform="translate(-83.235 -336.32)" style="fill:#13a2f8"/>
                <path data-name="Path 343883" d="m222.295 101.429.22-2.86c0-3.741-3.575-6.772-7.313-6.772s-7.313 3.031-7.313 6.772l.22 2.858a1.328 1.328 0 0 0-.556.282 1.349 1.349 0 0 0-.477 1.032v1.408a1.353 1.353 0 0 0 1.346 1.354c0 3.532 4.244 6.881 6.78 6.881s6.78-3.348 6.78-6.88a1.354 1.354 0 0 0 1.345-1.353v-1.411a1.352 1.352 0 0 0-1.031-1.311" transform="translate(-180.727 -74.495)" style="fill:#dd7734"/>
                <path data-name="Path 343884" d="M223.351 66.69a9.922 9.922 0 0 0-.927-4.031.594.594 0 0 0-1.025-.146c-.825 1.034-1.916.827-3.71.1-3-1.222-5.2-.476-6.471.852-5.441 2.777-2.116 12.511-2.116 12.511s.114-5.069 1.983-7.4a34.832 34.832 0 0 0 5.057.629 38.981 38.981 0 0 0 5.488-.629c2.03 1.211 1.554 7.4 1.554 7.4s2.142-5.4.167-9.284" transform="translate(-181.667 -47.028)" style="fill:#040405"/>
                <path data-name="Path 343885" d="M276.544 218.187c0 .331-.131.6-.292.6s-.292-.268-.292-.6.131-.6.292-.6.292.268.292.6" transform="translate(-244.205 -190.413)" style="fill:#4c0c0c"/>
                <path data-name="Path 343886" d="M343.487 218.187c0 .331-.131.6-.292.6s-.292-.268-.292-.6.131-.6.292-.6.292.268.292.6" transform="translate(-305.894 -190.413)" style="fill:#4c0c0c"/>
                <path data-name="Path 343887" d="M302.365 231.319a.757.757 0 0 1-.751-.409.685.685 0 0 1 .294-.8 5.217 5.217 0 0 0 .362-2.54l.406-.012c.011.4.041 2.432-.517 2.871-.141.111-.207.235-.17.324s.209.184.493.151l.047.4a1.452 1.452 0 0 1-.164.01" transform="translate(-267.809 -199.603)" style="fill:#920b10"/>
                <path data-name="Path 343888" d="M258.792 200.889s-1.608-.815-2.535.308c0 0 .976-1.581 2.42-.769s.115.46.115.46" transform="translate(-226.048 -174.387)" style="fill:#4c0c0c"/>
                <path data-name="Path 343889" d="M332.883 205.143s1.608.815 2.535-.308c0 0-.977 1.581-2.42.769s-.115-.46-.115-.46" transform="translate(-296.146 -178.662)" style="fill:#4c0c0c"/>
                <path data-name="Path 343890" d="M286.634 285.6a2.259 2.259 0 0 1-2.182-1.264l.377-.152-.189.076.188-.077a1.864 1.864 0 0 0 1.8 1.01 1.6 1.6 0 0 0 1.665-.99l.39.113a2.014 2.014 0 0 1-2.056 1.284" transform="translate(-252.03 -251.787)" style="fill:#920b10"/>
            </g>
        </g>
        <g data-name="Group 200506">
            <g data-name="Group 200505" style="clip-path:url(#aj6nbo5opf)" transform="translate(177.007 47.383)">
                <path data-name="Path 343892" d="M547.682 584.092a26.457 26.457 0 1 1-26.457-26.457 26.457 26.457 0 0 1 26.457 26.457" transform="translate(-494.768 -557.635)" style="fill:#fde5d6"/>
                <path data-name="Path 343893" d="m760.05 898.494-1.1-.507v-3.495h-7.05v3.495l-1.1.476.294 9.911h.81v1.519h7.055v-1.519h.805z" transform="translate(-728.985 -865.801)" style="fill:#dd7734"/>
                <g data-name="Group 200504" style="mix-blend-mode:multiply;isolation:isolate">
                    <g data-name="Group 200503">
                        <g data-name="Group 200502" style="clip-path:url(#ruok2msnfg)" transform="translate(22.911 28.692)">
                            <path data-name="Path 343894" d="m763.752 896.35 7.092 1.41-.036-3.267h-7.055z" transform="translate(-763.752 -894.493)" style="fill:#e4452d"/>
                        </g>
                    </g>
                </g>
                <path data-name="Path 343895" d="M632.065 958.112c-.358-3.876-1.338-7.544-1.914-10.92-.563-3.294-5.39-3.3-11.128-5.451l-.262.985a4.606 4.606 0 0 1-4.378 3.425c-3.115 0-4.3-2.706-4.673-3.878l-.141-.531c-5.739 2.158-10.569 2.158-11.129 5.45-.577 3.375-1.556 7.043-1.914 10.92l17.789 6z" transform="translate(-587.859 -909.024)" style="fill:#13a2f8"/>
                <path data-name="Path 343896" d="m791.783 1014.848-.337-15.073h-2.061l-.329 15.073z" transform="translate(-763.99 -962.115)" style="fill:#56d4fc"/>
                <path data-name="Path 343897" d="m788.591 972.9-.677 1.3h-2.061l-.658-1.3 1.7-1.388z" transform="translate(-760.457 -936.261)" style="fill:#56d4fc"/>
                <path data-name="Path 343898" d="m738.43 932.833-2.315 1.153 3.71 4.426 2.17-2.284-2.693-2.489z" transform="translate(-715.558 -900.875)" style="fill:#183f5e"/>
                <path data-name="Path 343899" d="m808.712 932.846-3.566 3.293 2.17 2.286 3.709-4.425z" transform="translate(-778.709 -900.887)" style="fill:#183f5e"/>
                <path data-name="Path 343900" d="M698.56 702.868a7.511 7.511 0 0 0 1.61 3.687 8.255 8.255 0 0 1 .5-3.988 5.7 5.7 0 0 0 .421-1.268 2.144 2.144 0 0 0-.384-1.512c-.427-.6-.749-.414-1.2.067a3.941 3.941 0 0 0-.95 3.014" transform="translate(-681.185 -687.335)" style="fill:#040405"/>
                <path data-name="Path 343901" d="m718.223 664.007.239-3.1c0-4.06-3.88-7.349-7.937-7.349s-7.937 3.289-7.937 7.349l.239 3.1a1.44 1.44 0 0 0-.6.305 1.464 1.464 0 0 0-.517 1.12v1.529a1.468 1.468 0 0 0 1.461 1.469c0 3.834 4.606 7.468 7.358 7.468s7.358-3.633 7.358-7.467a1.469 1.469 0 0 0 1.459-1.469v-1.532a1.467 1.467 0 0 0-1.12-1.423" transform="translate(-684.08 -645.383)" style="fill:#dd7734"/>
                <path data-name="Path 343902" d="M707.949 645.047a10.653 10.653 0 0 0-3.934.424c-2.033.617-3.9 1.847-6.022 2.011a3.848 3.848 0 0 0 2.7.861 5.386 5.386 0 0 1-3.131.533 3.284 3.284 0 0 0 1.02 1.824 4.437 4.437 0 0 0 3.017 1.057 8.982 8.982 0 0 0 3.177-.705 14.014 14.014 0 0 1 1.908-.674 7.874 7.874 0 0 1 2.336-.112 7.229 7.229 0 0 1 1.877.344 5.022 5.022 0 0 1 2.639 2.254 6.092 6.092 0 0 1 .743 3.414 4.516 4.516 0 0 0 .894-4.135 10.34 10.34 0 0 0-1.228-2.841 13.065 13.065 0 0 0-1.107-2.121 7.42 7.42 0 0 0-4.893-2.133" transform="translate(-680.292 -637.571)" style="fill:#040405"/>
                <path data-name="Path 343903" d="M708.363 716.427a10.613 10.613 0 0 1-.589-2.567 5.135 5.135 0 0 1 .41-2.579c.169-.36.674-.9 1.072-.464.318.352-.027 1.148-.109 1.528q-.44 2.032-.783 4.083" transform="translate(-689.613 -697.619)" style="fill:#040405"/>
                <path data-name="Path 343904" d="M768.234 781.746c0 .359-.142.651-.317.651s-.317-.291-.317-.651.142-.651.317-.651.317.291.317.651" transform="translate(-744.361 -762.061)" style="fill:#4c0c0c"/>
                <path data-name="Path 343905" d="M835.178 781.746c0 .359-.142.651-.317.651s-.317-.291-.317-.651.142-.651.317-.651.317.291.317.651" transform="translate(-805.603 -762.061)" style="fill:#4c0c0c"/>
                <path data-name="Path 343906" d="M794.074 795.148a.822.822 0 0 1-.815-.444.744.744 0 0 1 .32-.866c.318-.25.421-1.762.392-2.756l.441-.013c.012.437.045 2.64-.561 3.116-.153.121-.224.255-.184.352s.228.2.535.163l.05.438a1.523 1.523 0 0 1-.178.011" transform="translate(-767.795 -771.186)" style="fill:#920b10"/>
                <path data-name="Path 343907" d="M749.482 760.274a1.457 1.457 0 0 1 .541-.024c.128.027.247.088.374.119a.7.7 0 0 0 .7-.205.539.539 0 0 0 0-.7.808.808 0 0 0-.613-.182c-.775.019-2.038.521-2.294 1.34.175.048.388-.127.557-.183a4.958 4.958 0 0 1 .743-.167" transform="translate(-726.597 -742.108)" style="fill:#4c0c0c"/>
                <path data-name="Path 343908" d="M829.083 760.274a1.457 1.457 0 0 0-.541-.024c-.128.027-.247.088-.374.119a.7.7 0 0 1-.7-.205.539.539 0 0 1 0-.7.809.809 0 0 1 .613-.182c.775.019 2.038.521 2.294 1.34-.175.048-.388-.127-.557-.183a4.959 4.959 0 0 0-.743-.167" transform="translate(-799.019 -742.108)" style="fill:#4c0c0c"/>
                <path data-name="Path 343909" d="M779.731 856.307h4.056s-.89 1.735-2.176 1.735-1.88-1.735-1.88-1.735" transform="translate(-755.459 -830.867)" style="fill:#fff"/>
                <path data-name="Path 343910" d="M726.933 759.922h-1.591a4.7 4.7 0 0 0-2.192-.432c-1.638 0-2.75.314-3.32.927a2.164 2.164 0 0 0-2.249 0c-.572-.61-1.682-.923-3.316-.923a4.7 4.7 0 0 0-2.192.432h-1.6v1.146l.526.185a2.65 2.65 0 0 0-.076.643c0 1.424.347 3.317 3.344 3.317 2.677 0 3.379-1.647 3.713-3.258a1.945 1.945 0 0 0 .022-.7 1.29 1.29 0 0 1 .7-.156 1.271 1.271 0 0 1 .712.163 1.956 1.956 0 0 0 .023.689c.334 1.611 1.036 3.258 3.713 3.258 3 0 3.344-1.893 3.344-3.317a2.645 2.645 0 0 0-.077-.647l.516-.181zm-9.531 1.914c-.347 1.674-1.013 2.789-3.137 2.789-2.422 0-2.756-1.312-2.756-2.729 0-.45 0-1.817 2.756-1.817 1.9 0 2.651.43 2.945.791a1.106 1.106 0 0 1 .193.966m5.748 2.789c-2.124 0-2.79-1.115-3.137-2.789a1.106 1.106 0 0 1 .193-.966c.294-.361 1.043-.791 2.944-.791 2.756 0 2.756 1.368 2.756 1.817 0 1.418-.334 2.729-2.756 2.729" transform="translate(-692.098 -742.297)" style="fill:#0a243a"/>
            </g>
        </g>
        <g data-name="Group 200528">
            <path data-name="Rectangle 115490" d="M10 0h28.36a10 10 0 0 1 10 10v38.36H0V10A10 10 0 0 1 10 0z" transform="translate(157.984 121.158)" style="fill:#13a2f8"/>
            <g data-name="Group 199872">
                <g data-name="Group 138470" transform="translate(155.35 116.375)" style="clip-path:url(#ts78xw5jmh)">
                    <path data-name="Path 242121" d="M45.583 0H8.044L0 14.384v2.876c0 1.589 2.4 2.877 5.363 2.877s5.363-1.288 5.363-2.877c0 1.589 2.4 2.877 5.363 2.877s5.363-1.288 5.363-2.877c0 1.589 2.4 2.877 5.363 2.877s5.363-1.288 5.363-2.877c0 1.589 2.4 2.877 5.363 2.877S42.9 18.849 42.9 17.26c0 1.589 2.4 2.877 5.363 2.877s5.363-1.288 5.363-2.877v-2.876z" style="fill:#168ed6"/>
                    <path data-name="Path 242122" d="M8.044 0 0 14.384v2.876c0 1.589 2.4 2.877 5.363 2.877s5.363-1.288 5.363-2.877v-2.876L16.088 0z" style="fill:#13a2f8"/>
                    <path data-name="Path 242123" d="M535.808 718.557v2.877c0 1.589 2.4 2.877 5.363 2.877s5.363-1.288 5.363-2.877v-2.877z" transform="translate(-525.082 -704.173)" style="fill:#13a2f8"/>
                    <path data-name="Path 242124" d="M1607.423 718.557v2.877c0 1.589 2.4 2.877 5.363 2.877s5.363-1.288 5.363-2.877v-2.877z" transform="translate(-1575.246 -704.173)" style="fill:#13a2f8"/>
                    <path data-name="Path 242125" d="M1081 0h-8.044l-1.341 14.384v2.876c0 1.589 2.4 2.877 5.363 2.877s5.363-1.288 5.363-2.877v-2.876z" transform="translate(-1050.164)" style="fill:#13a2f8"/>
                    <path data-name="Path 242126" d="M1883.372 0h-8.044l5.363 14.384v2.876c0 1.589 2.4 2.877 5.363 2.877s5.363-1.288 5.363-2.877v-2.876z" transform="translate(-1837.789)" style="fill:#13a2f8"/>
                    <path data-name="Path 242127" d="M0 718.557v2.877c0 1.589 2.4 2.877 5.363 2.877s5.363-1.288 5.363-2.877v-2.877z" transform="translate(0 -704.173)" style="fill:#0c76b5"/>
                    <path data-name="Path 242128" d="M1071.615 718.557v2.877c0 1.589 2.4 2.877 5.363 2.877s5.363-1.288 5.363-2.877v-2.877z" transform="translate(-1050.164 -704.173)" style="fill:#0c76b5"/>
                    <path data-name="Path 242129" d="M2143.23 718.557v2.877c0 1.589 2.4 2.877 5.363 2.877s5.363-1.288 5.363-2.877v-2.877z" transform="translate(-2100.327 -704.173)" style="fill:#0c76b5"/>
                </g>
            </g>
        </g>
        <g data-name="Group 200533" transform="translate(96.615 99.802)">
            <circle data-name="Ellipse 16093" cx="20.004" cy="20.004" r="20.004" style="fill:#193697"/>
            <circle data-name="Ellipse 16092" cx="11.492" cy="11.492" r="11.492" transform="translate(8.512 8.512)" style="fill:#13a2f8"/>
        </g>
        <path data-name="Path 343917" d="m548.82 2517.41 35.709 27.232 1.152.878" transform="translate(-433.804 -2398.66)" style="stroke:#000;stroke-width:2px;fill:none"/>
        <path data-name="Path 343919" d="M549 2524.9v-7.612h7.579" transform="translate(-434.747 -2399.58)" style="stroke:#000;stroke-width:2px;fill:none"/>
    </g>
</svg>
