<svg xmlns="http://www.w3.org/2000/svg" width="100" height="76" viewBox="0 0 100 76">
    <defs>
        <clipPath id="ipr5mvzoqa">
            <path data-name="Rectangle 115718" style="fill:#13a2f8" d="M0 0h56.383v58.473H0z"/>
        </clipPath>
        <clipPath id="aoov8sggdb">
            <path data-name="Rectangle 115230" style="fill:none" d="M0 0h26.537v52.823H0z"/>
        </clipPath>
    </defs>
    <g data-name="Group 335052">
        <g data-name="Group 333428">
            <g data-name="Group 333417">
                <g data-name="Group 200475">
                    <g data-name="Group 200474">
                        <g data-name="Group 200473" style="clip-path:url(#ipr5mvzoqa)" transform="translate(3.268 7.389)">
                            <path data-name="Path 343831" d="M154.49 685.933s7 2.265 9.973 11.025c0 0 2.63 4.895 3.5 19.58 0 0 1.578 4.186.526 5.078 0 0-1.578.709-4.026-.709a69 69 0 0 1-26.762 0s-2.791 1.052-3.843.869c0 0-1.578-.183 0-4.369 0 0-.343-25.893 13.633-31.474z" transform="translate(-125.852 -663.755)" style="fill:#fcebde"/>
                            <path data-name="Path 343833" d="m330.6 552.444-3.157-.526s-1.235-.183-.869 1.052l4.026 5.421 4.186.343z" transform="translate(-308.6 -537.082)" style="fill:#efc6a7"/>
                            <path data-name="Path 343842" d="m366.389 522.919 4.643-6.2s.869-1.052-.869-1.4a15.3 15.3 0 0 1-6.29-1.235 12.228 12.228 0 0 0-4.895-.709s-1.235.343-.183 1.738l3.317 7.16z" transform="translate(-338.712 -500.65)" style="fill:#fcebde"/>
                            <path data-name="Path 343843" d="M368.793 644.652h-7.868a1.487 1.487 0 1 0 0 2.974h7.868a1.487 1.487 0 0 0 0-2.974" transform="translate(-339.721 -624.739)" style="fill:#13a2f8"/>
                            <path data-name="Rectangle 115685" transform="translate(44.077 25.586)" style="fill:#13a2f8" d="M0 0h1.029v21.524H0z"/>
                            <path data-name="Path 343844" d="M720.261 831.818c-.252.023-5.467.595-5.078-4.918v-.069c.023.023 4.986-.984 5.078 4.986" transform="translate(-675.932 -796.877)" style="fill:#13a2f8"/>
                            <path data-name="Path 343845" d="M720.613 833.876c-.252.023-5.467.595-5.055-4.918z" transform="translate(-676.284 -798.935)" style="fill:#13a2f8"/>
                            <path data-name="Path 343846" d="M777.263 657.512c-.206-.16-4.392-3.568-.435-6.976l.046-.046s4.3 2.928.389 7.022" transform="translate(-732.613 -630.256)" style="fill:#13a2f8"/>
                            <path data-name="Path 343847" d="M776.74 656.518c-.183-.16-4.186-3.317-.137-6.862z" transform="translate(-732.296 -629.468)" style="fill:#13a2f8"/>
                            <path data-name="Path 343848" d="M817.552 775.33c-.023-.229-.275-5.055 4.758-4.437h.046c0 .023.686 4.643-4.8 4.437" transform="translate(-772.697 -744.002)" style="fill:#13a2f8"/>
                            <path data-name="Path 343849" d="M817.552 775.656c-.023-.229-.275-5.055 4.758-4.415z" transform="translate(-772.697 -744.329)" style="fill:#13a2f8"/>
                            <path data-name="Path 343850" d="M817.546 905.487c-.023-.275-.32-5.924 5.581-5.17h.069s.778 5.4-5.65 5.17" transform="translate(-772.691 -866.314)" style="fill:#13a2f8"/>
                            <path data-name="Path 343851" d="M817.546 905.134c-.023-.275-.32-5.9 5.581-5.169z" transform="translate(-772.691 -865.984)" style="fill:#13a2f8"/>
                            <path data-name="Path 343852" d="M640.692 1039.155h-17.018a1.123 1.123 0 0 1-1.121-1.121v-1.967a1.123 1.123 0 0 1 1.121-1.121h17.018a1.123 1.123 0 0 1 1.121 1.121v1.967a1.138 1.138 0 0 1-1.121 1.121" transform="translate(-588.403 -993.623)" style="fill:#fed2af"/>
                            <path data-name="Rectangle 115686" transform="translate(51.465 42.124)" style="fill:#f68725" d="M0 0h.183v2.722H0z"/>
                            <path data-name="Rectangle 115687" transform="translate(49.544 42.124)" style="fill:#f68725" d="M0 0h.183v2.722H0z"/>
                            <path data-name="Rectangle 115688" transform="translate(47.28 42.124)" style="fill:#f68725" d="M0 0h.183v2.722H0z"/>
                            <path data-name="Rectangle 115689" transform="translate(44.832 42.124)" style="fill:#f68725" d="M0 0h.183v2.722H0z"/>
                            <path data-name="Rectangle 115690" transform="translate(42.385 42.124)" style="fill:#f68725" d="M0 0h.183v2.722H0z"/>
                            <path data-name="Rectangle 115691" transform="translate(40.097 42.124)" style="fill:#f68725" d="M0 0h.183v2.722H0z"/>
                            <path data-name="Rectangle 115692" transform="translate(37.833 42.124)" style="fill:#f68725" d="M0 0h.183v2.722H0z"/>
                            <path data-name="Rectangle 115693" transform="translate(35.911 42.124)" style="fill:#f68725" d="M0 0h.183v2.722H0z"/>
                            <path data-name="Path 343853" d="M694.9 1115.88h-17.018a1.123 1.123 0 0 1-1.121-1.121v-1.967a1.123 1.123 0 0 1 1.121-1.121H694.9a1.123 1.123 0 0 1 1.121 1.121v1.967a1.138 1.138 0 0 1-1.121 1.121" transform="translate(-639.637 -1066.139)" style="fill:#fed2af"/>
                            <path data-name="Rectangle 115694" transform="translate(54.439 46.309)" style="fill:#f68725" d="M0 0h.183v2.722H0z"/>
                            <path data-name="Rectangle 115695" transform="translate(52.518 46.309)" style="fill:#f68725" d="M0 0h.183v2.722H0z"/>
                            <path data-name="Rectangle 115696" transform="translate(50.253 46.309)" style="fill:#f68725" d="M0 0h.183v2.722H0z"/>
                            <path data-name="Rectangle 115697" transform="translate(47.806 46.309)" style="fill:#f68725" d="M0 0h.183v2.722H0z"/>
                            <path data-name="Rectangle 115698" transform="translate(45.358 46.309)" style="fill:#f68725" d="M0 0h.183v2.722H0z"/>
                            <path data-name="Rectangle 115699" transform="translate(43.071 46.309)" style="fill:#f68725" d="M0 0h.183v2.722H0z"/>
                            <path data-name="Rectangle 115700" transform="translate(40.806 46.309)" style="fill:#f68725" d="M0 0h.183v2.722H0z"/>
                            <path data-name="Rectangle 115701" transform="translate(38.885 46.309)" style="fill:#f68725" d="M0 0h.183v2.722H0z"/>
                            <path data-name="Path 343854" d="M640.692 1192.187h-17.018a1.123 1.123 0 0 1-1.121-1.121v-1.966a1.123 1.123 0 0 1 1.121-1.121h17.018a1.123 1.123 0 0 1 1.121 1.121v1.967a1.138 1.138 0 0 1-1.121 1.121" transform="translate(-588.403 -1138.26)" style="fill:#fed2af"/>
                            <path data-name="Rectangle 115702" transform="translate(51.465 50.518)" style="fill:#f68725" d="M0 0h.183v2.722H0z"/>
                            <path data-name="Rectangle 115703" transform="translate(49.544 50.518)" style="fill:#f68725" d="M0 0h.183v2.722H0z"/>
                            <path data-name="Rectangle 115704" transform="translate(47.28 50.518)" style="fill:#f68725" d="M0 0h.183v2.722H0z"/>
                            <path data-name="Rectangle 115705" transform="translate(44.832 50.518)" style="fill:#f68725" d="M0 0h.183v2.722H0z"/>
                            <path data-name="Rectangle 115706" transform="translate(42.385 50.518)" style="fill:#f68725" d="M0 0h.183v2.722H0z"/>
                            <path data-name="Rectangle 115707" transform="translate(40.097 50.518)" style="fill:#f68725" d="M0 0h.183v2.722H0z"/>
                            <path data-name="Rectangle 115708" transform="translate(37.833 50.518)" style="fill:#f68725" d="M0 0h.183v2.722H0z"/>
                            <path data-name="Rectangle 115709" transform="translate(35.911 50.518)" style="fill:#f68725" d="M0 0h.183v2.722H0z"/>
                            <path data-name="Path 343855" d="M666.128 1268.495H649.11a1.123 1.123 0 0 1-1.121-1.121v-1.967a1.123 1.123 0 0 1 1.121-1.121h17.018a1.123 1.123 0 0 1 1.121 1.121v1.967a1.108 1.108 0 0 1-1.121 1.121" transform="translate(-612.444 -1210.383)" style="fill:#fed2af"/>
                            <path data-name="Rectangle 115710" transform="translate(52.861 54.704)" style="fill:#f68725" d="M0 0h.183v2.722H0z"/>
                            <path data-name="Rectangle 115711" transform="translate(50.939 54.704)" style="fill:#f68725" d="M0 0h.183v2.722H0z"/>
                            <path data-name="Rectangle 115712" transform="translate(48.675 54.704)" style="fill:#f68725" d="M0 0h.183v2.722H0z"/>
                            <path data-name="Rectangle 115713" transform="translate(46.227 54.704)" style="fill:#f68725" d="M0 0h.183v2.722H0z"/>
                            <path data-name="Rectangle 115714" transform="translate(43.78 54.704)" style="fill:#f68725" d="M0 0h.183v2.722H0z"/>
                            <path data-name="Rectangle 115715" transform="translate(41.515 54.704)" style="fill:#f68725" d="M0 0h.183v2.722H0z"/>
                            <path data-name="Rectangle 115716" transform="translate(39.228 54.704)" style="fill:#f68725" d="M0 0h.183v2.722H0z"/>
                            <path data-name="Rectangle 115717" transform="translate(37.307 54.704)" style="fill:#f68725" d="M0 0h.183v2.722H0z"/>
                            <path data-name="Path 343856" d="M9.79 987.411A9.79 9.79 0 1 1 0 997.2a9.79 9.79 0 0 1 9.79-9.79" transform="translate(0 -948.696)" style="fill:#ffd2af"/>
                            <path data-name="Path 343858" d="M23.1 1022.766a8.921 8.921 0 1 1 8.921-8.921 8.932 8.932 0 0 1-8.921 8.921m0-16.583a7.64 7.64 0 1 0 7.64 7.64 7.653 7.653 0 0 0-7.64-7.64" transform="translate(-13.399 -965.248)" style="fill:#f68725"/>
                        </g>
                    </g>
                    <path data-name="Path 343830" d="m477.277 345.572-1.167-8.234-7.274 3.889 2.585 1.327-6.313 12.306-5.58-2.86-1.67 3.248.023.023-6.29 12.237 3.271 1.67 6.29-12.237 5.581 2.859 1.67-3.248-.023-.023 6.313-12.283z" transform="translate(-405.977 -303.315)" style="fill:#13a2f8"/>
                </g>
                <g data-name="Group 166746">
                    <path d="M0 0h6.723" style="stroke-linecap:round;stroke:#f68725;stroke-linejoin:round;stroke-miterlimit:22.926;fill:none" transform="translate(9.611 51.69)"/>
                    <g data-name="Group 166745">
                        <path d="M-12.966 0h1.91a2.211 2.211 0 0 1 2.2 2.2 2.211 2.211 0 0 1-2.2 2.2h-2.278l4.556 5.364" transform="translate(22.981 51.69)" style="stroke-linecap:round;stroke:#f68725;stroke-linejoin:round;stroke-miterlimit:22.926;fill:none"/>
                        <path d="M0 0h6.723" style="stroke-linecap:round;stroke:#f68725;stroke-linejoin:round;stroke-miterlimit:22.926;fill:none" transform="translate(9.611 53.894)"/>
                    </g>
                </g>
                <g data-name="Group 200476">
                    <g data-name="Group 199319" style="clip-path:url(#aoov8sggdb)" transform="translate(69.817 13.039)">
                        <path data-name="Path 340913" d="M119.158 366.4s1.226-8.9-.357-12.428l.865-12.08-5.184.388 3.19 24.207z" transform="translate(-105.675 -315.594)" style="fill-rule:evenodd;fill:#fec0a1"/>
                        <path data-name="Path 340915" d="M17.652 27a1.912 1.912 0 0 1-2.289-1.448l-.729-6.082 1.144.364L17 24.28z" transform="translate(-13.508 -17.973)" style="fill-rule:evenodd;fill:#fec0a1"/>
                        <path data-name="Path 340916" d="M2.27 1.863 1.794.857a.942.942 0 0 0-.445-.452L.572.04A.4.4 0 0 0 0 .424l.664 1.23a1.4 1.4 0 0 0 .7.616l.5.208z" transform="translate(0 -.001)" style="fill:#fec0a1"/>
                        <path data-name="Path 340917" d="m129.941 111.626.17 2.049a.7.7 0 0 0 .424.574.784.784 0 0 0 .742-.057l.205-.135a.842.842 0 0 0 .379-.868l-.476-2.422z" transform="translate(-119.945 -102.246)" style="fill-rule:evenodd;fill:#fec0a1"/>
                        <path data-name="Path 340918" d="m129.874 129.9.111.669.641-.621z" transform="translate(-119.883 -119.906)" style="fill:#f09c72;fill-rule:evenodd"/>
                        <path data-name="Path 340919" d="M123.936 93.105a.609.609 0 0 0-.3-.77l-.969-.412a.567.567 0 0 0-.705.341 6.876 6.876 0 0 0-.5 1.674.737.737 0 0 0 .339.811c.3.126 1.3.193 1.6-.356a9.109 9.109 0 0 0 .536-1.289" transform="translate(-112.106 -84.818)" style="fill-rule:evenodd;fill:#fec0a1"/>
                        <path data-name="Path 340920" d="M132.467 89.668a1.476 1.476 0 0 0 1.319-1.806 1.6 1.6 0 0 0-.169-.49 1.5 1.5 0 0 0-2.219-.694 4.452 4.452 0 0 0 1.067 2.99z" transform="translate(-121.284 -79.774)" style="fill:#663a24;fill-rule:evenodd"/>
                        <path data-name="Path 340921" d="M133.172 109.84a.391.391 0 0 1-.572.1.485.485 0 0 1 .022-.635.391.391 0 0 1 .572-.1.485.485 0 0 1-.022.635" transform="translate(-122.3 -100.725)" style="fill-rule:evenodd;fill:#fec0a1"/>
                        <path data-name="Path 340922" d="m242.481 479.336 5.858 9.071c.967.259 1.34-.7.973-1.6-1.554-3.929-1.735-6.093-5.224-9.358z" transform="translate(-223.827 -440.717)" style="fill-rule:evenodd;fill:#fec0a1"/>
                        <path data-name="Path 340923" d="m165.642 336.7 3.948 9.691a9.721 9.721 0 0 0 .762 1.51l5.526 8.209 2.219-1.762c-1.07-4.106-2.11-5.983-4.762-10.023l-2.449-9.3-2.425.383z" transform="translate(-152.899 -309.254)" style="fill-rule:evenodd"/>
                        <path data-name="Path 340924" d="m167.033 348.476 3.85 9.451a9.7 9.7 0 0 0 .762 1.51l5.46 8.111-1.227.974-5.526-8.209a9.707 9.707 0 0 1-.762-1.51l-3.948-9.691z" transform="translate(-152.899 -321.668)" style="fill-rule:evenodd"/>
                        <path data-name="Path 340925" d="m116.482 264.081-7.085.586c-1.153.46-.692 7.676-.692 7.676l4.659.234c2.222-.038 4.894.323 4.994-2.122.183-4.486-1.875-6.374-1.875-6.374" transform="translate(-100.258 -243.765)" style="fill-rule:evenodd"/>
                        <path data-name="Path 340926" d="m78.52 138.951 2.493-.817.706-.105 2.857.5a2.244 2.244 0 0 1 1.478 2.452l.615 2.1c1.041 2.391 1.227 6.133 1.878 8.669-3.482 2.25-9.223 3.123-10.777 1.471-.416-2.73-1.644-8.55-2.049-12.478-.221-2.147 2.229-.053 2.8-1.787" transform="translate(-69.885 -127.41)" style="fill-rule:evenodd;fill:#13a2f8"/>
                        <path data-name="Path 340927" d="m130.7 655.989-.713.764a6.75 6.75 0 0 1-1.306.592c-.11.25.1.381.287.414l3.257-.074s.752-.17.085-1.744c-.593.284-1.456.538-1.61.048" transform="translate(-118.755 -605.48)" style="fill:#4a2a1a;fill-rule:evenodd"/>
                        <path data-name="Path 340928" d="m109.794 367.645 1.2 10.23 1.578 10.256h3.793a15.654 15.654 0 0 1-.312-2.349c.042-.566.18-5.932-.976-8.4l.092-10.055z" transform="translate(-101.348 -339.067)" style="fill-rule:evenodd"/>
                        <path data-name="Path 340929" d="M18.814 58.151c-1.451-.309-5.456-6.774-5.575-7.436-.133-.745-1.046-5.052-1.046-5.052l2.17-.226a38.525 38.525 0 0 0 1.537 3.891c.275.287 4.083 4.314 4.083 4.314z" transform="translate(-11.256 -41.941)" style="fill-rule:evenodd;fill:#13a2f8"/>
                        <path data-name="Path 340930" d="M248.553 232.7a1.912 1.912 0 0 1 2.447 1.16l1.452 5.951-1.18-.224-1.744-4.267z" transform="translate(-229.432 -214.694)" style="fill-rule:evenodd;fill:#fec0a1"/>
                        <path data-name="Path 340931" d="m283.89 315.655.593.941a.942.942 0 0 0 .5.395l.815.27a.4.4 0 0 0 .522-.45l-.806-1.142a1.4 1.4 0 0 0-.767-.528l-.525-.146z" transform="translate(-262.05 -290.763)" style="fill:#fec0a1"/>
                        <path data-name="Path 340932" d="M185.88 146.636c1.478.133 6.228 6.072 6.425 6.715.221.724 1.643 4.89 1.643 4.89l-2.127.485a38.537 38.537 0 0 0-1.989-3.68c-.308-.252-4.571-3.794-4.571-3.794z" transform="translate(-171.01 -135.355)" style="fill-rule:evenodd;fill:#13a2f8"/>
                        <path data-name="Path 340934" d="M318.121 605.584a2.923 2.923 0 0 1 .395 2.023c-.029.244-.378.625-.23.814.244.3.657.2 1.029.085a1.094 1.094 0 0 0 .784-.832c-.009-1.412.375-2.41-.414-3.03a1.888 1.888 0 0 0-.373-.224c-.57.065-1.033.709-1.191 1.164" transform="translate(-293.648 -557.922)" style="fill:#4a2a1a"/>
                    </g>
                </g>
                <g data-name="Group 200477">
                    <g data-name="g78">
                        <path data-name="path80" d="M0 0h11.782" style="stroke-width:3px;stroke-linecap:round;stroke:#f68725;stroke-linejoin:round;stroke-miterlimit:22.926;fill:none" transform="translate(23.445 39.45)"/>
                    </g>
                    <g data-name="Group 166745">
                        <g data-name="g74">
                            <path data-name="path76" d="M-12.689 0h3.348a3.874 3.874 0 0 1 3.862 3.863 3.874 3.874 0 0 1-3.863 3.863h-3.992l7.983 9.4" transform="translate(36.842 39.45)" style="stroke-width:3px;stroke-linecap:round;stroke:#f68725;stroke-linejoin:round;stroke-miterlimit:22.926;fill:none"/>
                        </g>
                        <g data-name="g82">
                            <path data-name="path84" d="M0 0h11.782" style="stroke-width:3px;stroke-linecap:round;stroke:#f68725;stroke-linejoin:round;stroke-miterlimit:22.926;fill:none" transform="translate(23.445 43.312)"/>
                        </g>
                    </g>
                </g>
            </g>
            <path data-name="Rectangle 115983" style="fill:none" d="M0 0h100v76H0z"/>
        </g>
        <path data-name="Line 3946" transform="translate(3.238 66.932)" style="stroke:#fcebde;stroke-width:2px;stroke-linecap:round;fill:none" d="M0 0h92.753"/>
    </g>
</svg>
