<svg xmlns="http://www.w3.org/2000/svg" width="246.226" height="182.715" viewBox="0 0 246.226 182.715">
    <defs>
        <clipPath id="clip-path">
            <path id="Rectangle_115651" data-name="Rectangle 115651" style="fill:none" d="M0 0h1.937v1.02H0z"/>
        </clipPath>
        <clipPath id="clip-path-2">
            <path id="Rectangle_115652" data-name="Rectangle 115652" style="fill:none" d="M0 0h3.98v3.557H0z"/>
        </clipPath>
        <clipPath id="clip-path-3">
            <path id="Path_343419" data-name="Path 343419" d="m806.577 263.893-.129.205-1.487 2.363a2.322 2.322 0 0 0-.656 1.49c.075.723 1.558.836 1.558.836l.875-5.148-.16.254" transform="translate(-804.298 -263.639)" style="fill:#feab89"/>
        </clipPath>
        <clipPath id="clip-path-4">
            <path id="Rectangle_115656" data-name="Rectangle 115656" style="fill:none" d="M0 0h2.557v.891H0z"/>
        </clipPath>
        <clipPath id="clip-path-5">
            <path id="Rectangle_115727" data-name="Rectangle 115727" style="fill:none" d="M0 0h149.443v141.885H0z"/>
        </clipPath>
        <clipPath id="clip-path-6">
            <path id="Rectangle_115719" data-name="Rectangle 115719" style="fill:none" d="M0 0h149.443v117.16H0z"/>
        </clipPath>
        <clipPath id="clip-path-7">
            <circle id="Ellipse_16090" data-name="Ellipse 16090" cx="30.217" cy="30.217" r="30.217" transform="rotate(-45 51.583 21.366)" style="fill:none"/>
        </clipPath>
        <clipPath id="clip-path-8">
            <path id="Rectangle_115720" data-name="Rectangle 115720" style="fill:none" d="M0 0h6.715v4.254H0z"/>
        </clipPath>
        <clipPath id="clip-path-11">
            <path id="Rectangle_115724" data-name="Rectangle 115724" style="fill:none" d="M0 0h8.058v3.247H0z"/>
        </clipPath>
        <clipPath id="clip-path-13">
            <path id="Path_343911" data-name="Path 343911" d="M494.768 587.852a30.217 30.217 0 1 0 30.217-30.217 30.217 30.217 0 0 0-30.217 30.217" transform="translate(-494.768 -557.635)" style="fill:none"/>
        </clipPath>
        <clipPath id="clip-path-14">
            <path id="Rectangle_115726" data-name="Rectangle 115726" style="fill:none" d="M0 0h8.099v3.731H0z"/>
        </clipPath>
        <style>
            
        </style>
    </defs>
    <g id="Group_333365" data-name="Group 333365" transform="translate(-1148.281 -1350.867)">
        <g id="Group_200483" data-name="Group 200483" transform="translate(1269.185 1418.089)">
            <path id="Path_341406" data-name="Path 341406" d="M293.225 1224.4s26.494-26.319 19.449-38.351c-5.235-8.94-25.91 33.2-25.91 33.2z" transform="translate(-224.458 -1146.189)" style="fill:#5d708a"/>
            <path id="Path_341407" data-name="Path 341407" d="M749.07 1963.1a4.346 4.346 0 0 1-.319-6.029 4.093 4.093 0 0 1 5.875-.413 4.347 4.347 0 0 1 .319 6.03 4.093 4.093 0 0 1-5.875.413" transform="translate(-686.164 -1884.266)" style="fill:#5d708a"/>
            <path id="Path_341408" data-name="Path 341408" d="m1621.6 1253.169.05-.027a.924.924 0 0 0 .371-1.253l-2.826-5.2a.924.924 0 0 0-1.253-.371l-.05.027a.924.924 0 0 0-.371 1.253l2.826 5.2a.924.924 0 0 0 1.253.371" transform="translate(-1589.201 -1204.981)" style="fill:#ff8864"/>
            <path id="Path_341409" data-name="Path 341409" d="m1596.714 1205.618.055-.03a1.014 1.014 0 0 0 .407-1.375l-3.1-5.708a1.014 1.014 0 0 0-1.375-.407l-.055.03a1.014 1.014 0 0 0-.407 1.375l3.1 5.708a1.015 1.015 0 0 0 1.375.407" transform="translate(-1563.297 -1158.798)" style="fill:#ff8864"/>
            <path id="Path_341410" data-name="Path 341410" d="m1580.324 1161.76.055-.03a1.014 1.014 0 0 0 .407-1.375l-3.1-5.708a1.014 1.014 0 0 0-1.375-.407l-.055.03a1.015 1.015 0 0 0-.407 1.375l3.1 5.708a1.014 1.014 0 0 0 1.375.407" transform="translate(-1546.211 -1116.802)" style="fill:#ff8864"/>
            <path id="Path_341411" data-name="Path 341411" d="m1556.535 1109.2.068-.029a1.2 1.2 0 0 0 .625-1.574l-2.427-5.628a1.2 1.2 0 0 0-1.574-.625l-.068.029a1.2 1.2 0 0 0-.625 1.574l2.427 5.628a1.2 1.2 0 0 0 1.574.625" transform="translate(-1521.64 -1066.179)" style="fill:#ff8864"/>
            <path id="Path_341412" data-name="Path 341412" d="M1357.941 1087.145c.78-.755 1.8.722 2.473 1.985a1.718 1.718 0 0 0 3.178-1.248 37.666 37.666 0 0 0-.973-3.709c-.749-1.848.134-4.751.706-4.751s.882.427.979 1.7c.078 1.033 1.408 3.7 2.4 5.41a12.5 12.5 0 0 1 1.458 3.79 14.923 14.923 0 0 1 .727 4.286c-.177 2.857 4.333 7.637 4.323 8.17s-6.351 3.529-7.628 2.545-2.766-6.523-3.426-7.815-5.492-9.126-4.216-10.362" transform="translate(-1329.261 -1045.277)" style="fill:#ff8864"/>
            <path id="Path_341413" data-name="Path 341413" d="M777.26 1492.5s-4.5-.692-8.257 4.453c0 0 19.434 30.634 29.328 31.446l9.21-12.651s-9.091-7.011-16.484-10.426-13.8-12.822-13.8-12.822" transform="translate(-736.595 -1440.792)" style="fill:#56d4fc"/>
            <path id="Path_341414" data-name="Path 341414" d="M40.495 1083.651c-2.587-5.331-4.12-7.564-3.051-11.675 7.351-28.265 11.135-29.447 10.545-39.86-.831-14.658-24.936-13.372-24.984-13.366s-22.917.429-22.29 13.536c.5 10.419 1.074 13 .316 32.672 1.9 4.953.891 10.327-1.03 18.693" transform="translate(53.532 -987.151)" style="fill:#0ba2f8"/>
            <path id="Path_341415" data-name="Path 341415" d="M19.746 0s-28.7 44.031-16.9 44.074C14.4 56.063 34.789 3.295 34.789 3.295z" transform="rotate(138 49.792 57.579)" style="fill:#56d4fc"/>
            <path id="Path_341416" data-name="Path 341416" d="M528.651 2164.585a5.279 5.279 0 1 1 7.394-1.032 5.279 5.279 0 0 1-7.394 1.032" transform="translate(-426.974 -2080.491)" style="fill:#f5bfff"/>
            <path id="Path_341456" data-name="Path 341456" d="m1750.951 1234.6 1.122-.368-.627-1.372-1.125.358z" transform="translate(-1724.786 -1192.204)" style="fill:#fff"/>
            <g id="Group_199376" data-name="Group 199376">
                <path id="Path_341566" data-name="Path 341566" d="m439.339 439.27 8.067-14.446-5.371-1.638-7.479 15.159z" transform="translate(-407.393 -392.679)"/>
                <path id="Path_341569" data-name="Path 341569" d="m490.042 507.437-3.083 5.975a2.207 2.207 0 0 1-3.979-1.906s.038-.153.629-1.994c0 0 3.536.733 2.261-1.282a1.831 1.831 0 0 0 1.194-.045c.819-.373 1.482-1.415-.216-2.879a4.835 4.835 0 0 0 2.546.343 13.768 13.768 0 0 0 .648 1.788" transform="translate(-456.418 -463.922)"/>
                <path id="Path_341573" data-name="Path 341573" d="M484.444 484.092h.007a1.042 1.042 0 0 0 .894-.986 2 2 0 0 0-.422-1.258 4.755 4.755 0 0 0-2.142-1.728.132.132 0 0 0-.1.246A4.488 4.488 0 0 1 484.7 482a1.758 1.758 0 0 1 .377 1.091.781.781 0 0 1-.644.741.132.132 0 0 0 .007.265" transform="translate(-451.699 -442.063)"/>
                <path id="Path_341574" data-name="Path 341574" d="m409.25 371.286 5.484 2.336a2.455 2.455 0 0 0 3.221-1.3l1.894-4.448a2.455 2.455 0 0 0-1.3-3.221l-5.485-2.336z" transform="translate(-376.682 -339.875)" style="fill:#0c76b5"/>
                <path id="Path_341576" data-name="Path 341576" d="M460.983 197.274s2.757-3.336 5.718-1.683c2.161 1.207 14.466 12.309 20.952 18.215a7.632 7.632 0 0 1-7.363 12.944l-24.7-7.52s-2.722-1.01-2.292-5.252 7.681-16.7 7.681-16.7" transform="translate(-452.609 -194.83)" style="fill:#13a2f8"/>
                <path id="Path_341578" data-name="Path 341578" d="M614.056 202.493c-2.839 6.666-2.258 13.3 1.3 14.811s8.739-2.662 11.578-9.327 2.258-13.3-1.3-14.811-8.739 2.662-11.578 9.327" transform="translate(-612.255 -192.856)" style="fill:#193697"/>
            </g>
            <g id="Group_199380" data-name="Group 199380" transform="translate(34.003 75.608)">
                <path id="Path_341559" data-name="Path 341559" d="M.345.4A1.262 1.262 0 0 0 .4 2.179l5.641 5.333a1.262 1.262 0 0 0 1.784-.051c.479-.507.133-1.474-.374-1.952L2.129.345A1.262 1.262 0 0 0 .345.4" transform="rotate(120 3.975 11.278)" style="fill:#ff8864"/>
                <path id="Path_341560" data-name="Path 341560" d="M.345.4A1.262 1.262 0 0 0 .4 2.179l5.641 5.333a1.262 1.262 0 0 0 1.784-.051c.479-.507.114-1.494-.393-1.973L2.129.345A1.262 1.262 0 0 0 .345.4" transform="rotate(120 3.333 10.05)" style="fill:#ff8864"/>
                <path id="Path_341561" data-name="Path 341561" d="M.5.373a1.49 1.49 0 0 0-.131 2.1l4.838 5.48a1.49 1.49 0 0 0 2.1.131c.617-.545.225-1.876-.319-2.493L2.607.5A1.49 1.49 0 0 0 .5.373" transform="rotate(120 2.771 8.685)" style="fill:#ff8864"/>
                <path id="Path_341562" data-name="Path 341562" d="M8.26 21.971a22.458 22.458 0 0 1-4.533-8.516C2.858 10.111.208 3.452.019 2.836S1.089-.552 2.924.1s5.621 6.444 6.863 7.679 9.725 8.411 8.725 10.307-4.977-2.826-4.977-2.826z" transform="rotate(120 13.387 15.053)" style="fill:#ff8864"/>
                <path id="Path_341563" data-name="Path 341563" d="M0 4.328C1.351 5.821 4.487 9.073 4.833 10.5c.363 1.5.988 2.077 1.643 1.859.973-.323 1.116-3.7-.1-5.778S4.277.232 2.726.008 0 4.328 0 4.328" transform="rotate(120 4.521 8.756)" style="fill:#ff8864"/>
            </g>
            <path id="Path_341564" data-name="Path 341564" d="M1553.713 1088.167c-.464.394-1.582 2.831.023 4.374.407.391 1.017 1.708 1.421 1.99 1.035.725 1.348-.5.982-1.732a29.723 29.723 0 0 0-2.426-4.632" transform="translate(-1519.831 -1053.651)" style="fill:#ff8864"/>
            <path id="Path_341565" data-name="Path 341565" d="M44.56 36.015s6.571.13 8.819-5.533c0 0-19.688-24.693-47.367-30.329 0 0-3.482-1.263-5.355 3.465s.861 6.424.861 6.424S18.694 22.9 28.408 26.457a52.4 52.4 0 0 1 16.152 9.558" transform="rotate(140 41.977 61.247)" style="fill:#56d4fc"/>
            <path id="Path_341585" data-name="Path 341585" d="M1560.6 1105.046a1.113 1.113 0 0 0 .622-1.49l-.573-1.622a1.215 1.215 0 0 0-1.566-.592l-.067.028a1.113 1.113 0 0 0-.622 1.489l.573 1.622a1.215 1.215 0 0 0 1.565.592" transform="translate(-1527.727 -1066.473)" style="fill:#ff8864"/>
            <path id="Path_341586" data-name="Path 341586" d="M1560.6 1105.046a1.113 1.113 0 0 0 .622-1.49l-.573-1.622a1.215 1.215 0 0 0-1.566-.592l-.067.028a1.113 1.113 0 0 0-.622 1.489l.573 1.622a1.215 1.215 0 0 0 1.565.592" transform="translate(-1528.781 -1063.935)" style="fill:#ff8864"/>
            <path id="Path_341587" data-name="Path 341587" d="M1560.6 1105.046a1.113 1.113 0 0 0 .622-1.49l-.573-1.622a1.215 1.215 0 0 0-1.566-.592l-.067.028a1.113 1.113 0 0 0-.622 1.489l.573 1.622a1.215 1.215 0 0 0 1.565.592" transform="translate(-1529.724 -1062.112)" style="fill:#ff8864"/>
            <path id="Path_341588" data-name="Path 341588" d="M1560.3 1104.561a.971.971 0 0 0 .543-1.3l-.5-1.414a1.059 1.059 0 0 0-1.365-.516l-.059.024a.971.971 0 0 0-.542 1.3l.5 1.414a1.06 1.06 0 0 0 1.365.516" transform="translate(-1530.329 -1060.154)" style="fill:#ff8864"/>
        </g>
        <g id="Group_200484" data-name="Group 200484" transform="translate(1331.296 1414.045)">
            <g id="Group_200327" data-name="Group 200327">
                <path id="Path_343409" data-name="Path 343409" d="M722.478 28.672c3.071-9.841.194-13.089-1.868-14.181-.773-4.678-6.986-5.428-11.361-3.869a12.522 12.522 0 0 1-8.132.3c-1.718-.719-.133 5.272 2.677 6.821-1.027 1.172 1.926 4.346 1.926 4.346s4.87 9.6 5.18 9.841a74.8 74.8 0 0 0 9.715-.087c.036-.173 1.863-3.166 1.863-3.166" transform="translate(-700.405 -9.293)" style="fill:#2b1710"/>
                <path id="Path_343410" data-name="Path 343410" d="M763.64 124.14c-.074 2.093 1.581 3.4 2.346 3.2s-3.158 9.1.457 9.671.073 2.545.073 2.545a46.736 46.736 0 0 0 .355 13.926c-6.44 5.767-18.906 4.318-14.169-1.081a20.683 20.683 0 0 0 1.646-6.463c-3.278-.742-5.625-3.941-4.606-9.992s1.647-11.1 2.279-12.113c1.631 2.869 11 .964 11.62.309" transform="translate(-746.553 -116.399)" style="fill:#fec0a1"/>
                <path id="Path_343411" data-name="Path 343411" d="M901.976 259.2c-.142.683.051 1.3.432 1.381s.805-.41.947-1.094-.052-1.3-.432-1.381-.805.41-.947 1.094" transform="translate(-889.832 -242.605)" style="fill:#2b1710"/>
                <path id="Path_343412" data-name="Path 343412" d="M806.117 239.255c-.142.683.051 1.3.432 1.381s.805-.411.947-1.094-.051-1.3-.432-1.381-.805.411-.947 1.094" transform="translate(-799.727 -223.858)" style="fill:#2b1710"/>
                <g id="Group_200164" data-name="Group 200164" transform="translate(11.947 17.564)" style="mix-blend-mode:multiply;isolation:isolate">
                    <g id="Group_200163" data-name="Group 200163">
                        <g id="Group_200162" data-name="Group 200162" style="clip-path:url(#clip-path)">
                            <path id="Path_343413" data-name="Path 343413" d="M899.848 293.615a1.143 1.143 0 0 0 .5-.012 1.625 1.625 0 0 0 1.013-.821.111.111 0 1 0-.2-.107 1.4 1.4 0 0 1-.871.712.851.851 0 0 1-.684-.106.111.111 0 1 0-.124.185 1 1 0 0 0 .357.149" transform="translate(-899.442 -292.617)" style="fill:#e0b3a8"/>
                        </g>
                    </g>
                </g>
                <path id="Path_343415" data-name="Path 343415" d="M1015.528 316.557a2.938 2.938 0 1 0 3.475-2.278 2.938 2.938 0 0 0-3.475 2.278" transform="translate(-996.554 -295.357)" style="fill:#feab88"/>
                <g id="Group_200167" data-name="Group 200167" transform="translate(19.757 19.705)" style="mix-blend-mode:multiply;isolation:isolate">
                    <g id="Group_200166" data-name="Group 200166">
                        <g id="Group_200165" data-name="Group 200165" style="clip-path:url(#clip-path-2)">
                            <path id="Path_343416" data-name="Path 343416" d="M1029.6 329.965a2.1 2.1 0 0 0 .515 1.851.124.124 0 1 0 .182-.168 1.848 1.848 0 0 1-.471-1.516 1.252 1.252 0 1 0 1.469-1.523c-.027-.006-.053 0-.08-.008a1.838 1.838 0 0 1 2.087.969.124.124 0 1 0 .221-.111 2.093 2.093 0 0 0-3.923.506m.454-.334a1.006 1.006 0 1 1 .78 1.19 1.007 1.007 0 0 1-.78-1.19" transform="translate(-1029.554 -328.298)" style="fill:#e0b3a8"/>
                        </g>
                    </g>
                </g>
                <path id="Path_343417" data-name="Path 343417" d="m897.9 219.634-4.192-1.346c1.034-.846 3.723-.31 4.192 1.346" transform="translate(-882.1 -204.813)" style="fill:#2b1710"/>
                <path id="Path_343418" data-name="Path 343418" d="m788.956 199.664 3.241.2a1.855 1.855 0 0 0-3.241-.2" transform="translate(-783.641 -186.873)" style="fill:#2b1710"/>
                <path id="Path_343420" data-name="Path 343420" d="m803.213 237.482.934.194a.113.113 0 1 0 .046-.221l-.934-.194a.755.755 0 0 1-.492-1.131l2.193-3.475a1.285 1.285 0 0 0 .161-.407l.346-1.664a.113.113 0 1 0-.221-.046l-.346 1.662a1.061 1.061 0 0 1-.131.334l-2.194 3.475a.981.981 0 0 0 .638 1.471" transform="translate(-796.306 -216.616)" style="fill:#2b1710"/>
                <g id="Group_200177" data-name="Group 200177" transform="translate(5.466 25.606)" style="mix-blend-mode:multiply;isolation:isolate">
                    <g id="Group_200176" data-name="Group 200176">
                        <g id="Group_200175" data-name="Group 200175" style="clip-path:url(#clip-path-4)">
                            <path id="Path_343421" data-name="Path 343421" d="M793.077 427.379c.241.05.511.095.811.129a.113.113 0 1 0 .025-.225 5.731 5.731 0 0 1-2.282-.648.113.113 0 0 0-.124.189 4.875 4.875 0 0 0 1.569.555" transform="translate(-791.457 -426.617)" style="fill:#e0b3a8"/>
                        </g>
                    </g>
                </g>
                <path id="Path_343422" data-name="Path 343422" d="M855.65 446.547c5.2-.229 7.213-2.971 7.213-2.971-.721 6.942-9.147 15.307-7.213 2.971" transform="translate(-846.061 -416.952)" style="fill:#e9a988"/>
                <path id="Path_343423" data-name="Path 343423" d="M1002.284 310.72c-.471 1.449.216 2.055.216 2.055a1.192 1.192 0 0 1-.216-2.055" transform="translate(-983.698 -292.07)" style="fill:#2b1710"/>
                <path id="Path_343424" data-name="Path 343424" d="M986.063 0c3.681 1.85 3.241 4.469 3.059 5.2 2.893-2.108-.692-5.068-3.059-5.2" transform="translate(-968.917 -.003)" style="fill:#2b1710"/>
                <path id="Path_343425" data-name="Path 343425" d="M1039.333 49.823a2.194 2.194 0 0 1-2.3 2.208c2.513 1.02 2.567-1.408 2.3-2.208" transform="translate(-1016.823 -46.833)" style="fill:#2b1710"/>
                <path id="Path_343426" data-name="Path 343426" d="M788.388 363.919a23.333 23.333 0 0 0-6.943-1.934c.222 3.614 3.075 4.692 6.943 1.934" transform="translate(-776.58 -340.258)" style="fill:#fff"/>
                <path id="Path_343427" data-name="Path 343427" d="M782.477 363.47a3.118 3.118 0 0 0-.284.891 4.461 4.461 0 0 1-.747-2.377 3.42 3.42 0 0 0 1.031 1.486" transform="translate(-776.581 -340.257)" style="fill:#2b1710"/>
            </g>
        </g>
        <path id="Line_52" data-name="Line 52" transform="translate(1165.182 1514.333)" style="stroke:#fcebde;stroke-linecap:round;stroke-width:2px;fill:none" d="M0 0h199.391"/>
        <g id="Group_200508" data-name="Group 200508" transform="translate(1148.281 1350.867)">
            <g id="Group_200507" data-name="Group 200507" style="clip-path:url(#clip-path-5)">
                <g id="Group_200487" data-name="Group 200487" transform="translate(-22.253 5.563)">
                    <g id="Group_200486" data-name="Group 200486" style="clip-path:url(#clip-path-6)">
                        <path id="Path_343859" data-name="Path 343859" d="M1115.529 475.123s5.353 9.253 12.7 10.281-20.129 7.186-33.508-3.09z" transform="translate(-988.227 -428.903)" style="fill:#fde5d6"/>
                    </g>
                </g>
                <g id="Group_200492" data-name="Group 200492" transform="translate(54.045 -6.953)">
                    <g id="Group_200491" data-name="Group 200491" style="clip-path:url(#clip-path-7)">
                        <path id="Path_343860" data-name="Path 343860" d="M975.41 30.216A30.217 30.217 0 1 1 945.193 0a30.217 30.217 0 0 1 30.217 30.216" transform="translate(-902.264 12.517)" style="fill:#fde5d6"/>
                        <path id="Path_343861" data-name="Path 343861" d="m1184.188 361.341-1.679-.357V356.7h-6.715v4.282l-1.679.357 1.679 10.6h6.715z" transform="translate(-1136.194 -309.485)" style="fill:#dd7734"/>
                        <g id="Group_200490" data-name="Group 200490" transform="translate(39.6 47.244)" style="mix-blend-mode:multiply;isolation:isolate">
                            <g id="Group_200489" data-name="Group 200489">
                                <g id="Group_200488" data-name="Group 200488" style="clip-path:url(#clip-path-8)">
                                    <path id="Path_343862" data-name="Path 343862" d="M1191.372 356.989v1.892l6.715 2.362v-4.254z" transform="translate(-1191.372 -356.989)" style="fill:#e4452d"/>
                                </g>
                            </g>
                        </g>
                        <path id="Rectangle_115721" data-name="Rectangle 115721" transform="translate(36.192 59.432)" style="fill:#f09d66" d="M0 0h13.533v14.132H0z"/>
                        <path id="Rectangle_115722" data-name="Rectangle 115722" transform="translate(36.163 59.432)" style="fill:#56d4fc" d="M0 0h13.533v14.132H0z"/>
                        <path id="Path_343863" data-name="Path 343863" d="M1257.188 422.941c-.05-3.087-.122-8.753-.226-9.671-.359-3.17-1.15-6.921-3.942-9.6a10.845 10.845 0 0 0-7.762-2.778v.007l-.031-.007-2.219 10.194v11.856z" transform="translate(-1198.384 -349.377)" style="fill:#13a2f8"/>
                        <path id="Path_343864" data-name="Path 343864" d="M1075.255 400.892a10.845 10.845 0 0 0-7.762 2.778c-2.792 2.68-3.583 6.431-3.942 9.6-.1.918-.176 6.584-.226 9.671h14.148v-11.855l-2.219-10.193z" transform="translate(-1036.182 -349.377)" style="fill:#13a2f8"/>
                        <path id="Path_343865" data-name="Path 343865" d="m1144.292 397.843 3.765 1.391-1.478 2.015 3.971 4.659-2.326-10.751z" transform="translate(-1109.272 -344.2)" style="fill:#193697"/>
                        <path id="Path_343866" data-name="Path 343866" d="m1249.28 397.843-3.932-2.686-2.339 10.751 3.984-4.659-1.478-2.015z" transform="translate(-1198.385 -344.2)" style="fill:#193697"/>
                        <path id="Path_343867" data-name="Path 343867" d="M1146.5 127.327v-3.492c0-3.708-4.293-8.393-7.692-8.393s-7.692 4.685-7.692 8.393v3.492a1.694 1.694 0 0 0-1.709 1.679v1.746a1.694 1.694 0 0 0 1.709 1.679c0 3.708 4.293 8.528 7.692 8.528s7.692-4.819 7.692-8.528a1.694 1.694 0 0 0 1.709-1.679v-1.746a1.694 1.694 0 0 0-1.709-1.679" transform="translate(-1095.839 -91.695)" style="fill:#dd7734"/>
                        <path id="Path_343868" data-name="Path 343868" d="M1191.456 244.566c0 .41-.162.743-.362.743s-.362-.333-.362-.743.162-.743.362-.743.362.333.362.743" transform="translate(-1151.194 -207.587)" style="fill:#4c0c0c"/>
                        <path id="Path_343869" data-name="Path 343869" d="M1258.4 244.566c0 .41-.162.743-.362.743s-.362-.333-.362-.743.162-.743.362-.743.362.333.362.743" transform="translate(-1211.626 -207.587)" style="fill:#4c0c0c"/>
                        <path id="Path_343870" data-name="Path 343870" d="M1217.328 258.455a.938.938 0 0 1-.931-.507.849.849 0 0 1 .365-.989c.363-.286.481-2.013.448-3.148l.5-.014c.015.5.051 3.015-.64 3.558-.175.138-.256.292-.211.4s.261.227.611.187l.057.5a1.79 1.79 0 0 1-.2.012" transform="translate(-1174.318 -216.59)" style="fill:#920b10"/>
                        <path id="Path_343871" data-name="Path 343871" d="M1174.172 227.291s-1.994-1.01-3.142.382c0 0 1.21-1.96 3-.953s.142.571.142.571" transform="translate(-1133.409 -191.889)" style="fill:#4c0c0c"/>
                        <path id="Path_343872" data-name="Path 343872" d="M1247.282 227.291s1.994-1.01 3.142.382c0 0-1.21-1.96-3-.953s-.142.571-.142.571" transform="translate(-1201.619 -191.889)" style="fill:#4c0c0c"/>
                        <path id="Path_343873" data-name="Path 343873" d="M1127.4 107.93a11.528 11.528 0 0 0-2.764 3.524 23 23 0 0 0-1.633 4.988l-.514 2.1a.962.962 0 0 1 .941-.2 8.7 8.7 0 0 0 .974.266 2.887 2.887 0 0 0 2.032-.944l1.6-1.359a11.586 11.586 0 0 1 1.328-1.022c.533-.334 1.117-.578 1.68-.856a15.023 15.023 0 0 0 5.172-4.213 2.805 2.805 0 0 0 .76-2.669 2.112 2.112 0 0 0-.633-.785 4.974 4.974 0 0 0-2.3-.808 4.785 4.785 0 0 0-2.013-.21 9.17 9.17 0 0 0-4.629 2.19" transform="translate(-1089.593 -82.903)" style="fill:#040405"/>
                        <path id="Path_343874" data-name="Path 343874" d="M1227.079 110.695a10.9 10.9 0 0 1 3.039 2.7 10.074 10.074 0 0 1 1.124 1.506 7.3 7.3 0 0 1 .863 3.549 21.782 21.782 0 0 1-.368 3.669 4.813 4.813 0 0 0-1.079-.888 33.6 33.6 0 0 1-4.318-3.5 13.988 13.988 0 0 1-1.562-1.711c-.934-1.251-1.991-3.349-1.688-4.967.3-1.581 3.05-.857 3.99-.36" transform="translate(-1180.355 -86.864)" style="fill:#040405"/>
                        <path id="Path_343875" data-name="Path 343875" d="M1177.141 66.534a2.814 2.814 0 0 1 .094-2.5 3.906 3.906 0 0 1 1.15-1.225 6.621 6.621 0 0 1 5.078-1.133 4.931 4.931 0 0 1 2.9 1.611 3.31 3.31 0 0 1 .627 3.172 2.507 2.507 0 0 1-2.663 1.621 9.332 9.332 0 0 1-1.318-.465 4.853 4.853 0 0 0-3.381.333 2.18 2.18 0 0 1-2.488-1.414" transform="translate(-1138.701 -43.057)" style="fill:#040405"/>
                        <path id="Path_343876" data-name="Path 343876" d="M1205.614 314.676a3.158 3.158 0 0 0 1.8.672 2.671 2.671 0 0 0 1.693-.672s-.564 1.908-1.747 1.908-1.747-1.908-1.747-1.908" transform="translate(-1164.628 -271.548)" style="fill:#fff"/>
                    </g>
                </g>
                <g id="Group_200494" data-name="Group 200494" transform="translate(0 24.725)">
                    <g id="Group_200493" data-name="Group 200493" style="clip-path:url(#clip-path-6)">
                        <path id="Path_343877" data-name="Path 343877" d="M1153.7 223.832h-1.7a5.029 5.029 0 0 0-2.345-.462c-1.752 0-2.942.336-3.552.992a2.316 2.316 0 0 0-2.406 0c-.612-.653-1.8-.987-3.548-.987a5.03 5.03 0 0 0-2.345.462h-1.714v1.226l.563.2a2.84 2.84 0 0 0-.081.688c0 1.524.371 3.549 3.577 3.549 2.864 0 3.615-1.762 3.972-3.485a2.081 2.081 0 0 0 .024-.744 1.379 1.379 0 0 1 .751-.167 1.361 1.361 0 0 1 .762.174 2.086 2.086 0 0 0 .025.737c.357 1.723 1.109 3.485 3.972 3.485 3.206 0 3.577-2.025 3.577-3.549a2.824 2.824 0 0 0-.082-.692l.552-.193zm-10.2 2.047c-.371 1.791-1.084 2.984-3.356 2.984-2.591 0-2.948-1.4-2.948-2.92 0-.481 0-1.944 2.948-1.944 2.034 0 2.836.46 3.15.847a1.182 1.182 0 0 1 .206 1.033m6.15 2.984c-2.273 0-2.985-1.193-3.356-2.984a1.183 1.183 0 0 1 .206-1.033c.314-.386 1.116-.847 3.15-.847 2.948 0 2.948 1.463 2.948 1.944 0 1.517-.357 2.92-2.948 2.92" transform="translate(-1047.822 -220.802)" style="fill:#fff"/>
                        <path id="Path_343878" data-name="Path 343878" d="M208.939 475.123s5.353 9.253 12.7 10.281-20.129 7.186-33.508-3.09z" transform="translate(-169.83 -428.903)" style="fill:#fde5d6"/>
                    </g>
                </g>
                <g id="Group_200499" data-name="Group 200499" transform="translate(-12.516 12.209)">
                    <g id="Group_200498" data-name="Group 200498" style="clip-path:url(#clip-path-7)">
                        <path id="Path_343879" data-name="Path 343879" d="M60.433 30.216A30.217 30.217 0 1 1 30.217 0a30.217 30.217 0 0 1 30.216 30.216" transform="translate(12.516 12.517)" style="fill:#fde5d6"/>
                        <path id="Path_343880" data-name="Path 343880" d="m266.831 335.889-1.256-.579v-3.991h-8.058v3.991l-1.261.544.336 11.319h.925v1.735h8.058v-1.735h.92z" transform="translate(-218.812 -286.572)" style="fill:#dd7734"/>
                        <g id="Group_200497" data-name="Group 200497" transform="translate(38.704 45.153)" style="mix-blend-mode:multiply;isolation:isolate">
                            <g id="Group_200496" data-name="Group 200496">
                                <g id="Group_200495" data-name="Group 200495" style="clip-path:url(#clip-path-11)">
                                    <path id="Path_343881" data-name="Path 343881" d="M277.255 335.49v3.247l-8.058-1.387v-1.86z" transform="translate(-269.198 -335.49)" style="fill:#e4452d"/>
                                </g>
                            </g>
                        </g>
                        <path id="Path_343882" data-name="Path 343882" d="M142.009 394.852c-.713-5.131-1.451-8.762-3.2-12.647-1.477-3.22-5.624-4.015-11.566-6.06-.211-.074-.426-.148-.641-.225 0 .01 0 .023-.007.034-.391 2.213-1.5 5.077-4.946 5.413-3.444-.336-4.555-3.2-4.946-5.413 0-.01 0-.024-.007-.034-.215.077-.43.151-.641.225-5.943 2.045-10.089 2.84-11.566 6.06-1.753 3.885-2.49 7.516-3.2 12.647l20.364 8.058z" transform="translate(-78.912 -326.835)" style="fill:#13a2f8"/>
                        <path id="Path_343883" data-name="Path 343883" d="m225.94 103.736.273-3.546c0-4.637-4.432-8.394-9.065-8.394s-9.065 3.757-9.065 8.394l.272 3.542a1.646 1.646 0 0 0-.689.349 1.672 1.672 0 0 0-.591 1.279v1.746a1.677 1.677 0 0 0 1.668 1.678c0 4.378 5.261 8.529 8.4 8.529s8.4-4.15 8.4-8.528a1.678 1.678 0 0 0 1.667-1.677v-1.746a1.676 1.676 0 0 0-1.279-1.625" transform="translate(-174.415 -70.351)" style="fill:#dd7734"/>
                        <path id="Path_343884" data-name="Path 343884" d="M227.005 67.815a12.3 12.3 0 0 0-1.149-5 .737.737 0 0 0-1.271-.18c-1.023 1.282-2.375 1.026-4.6.12-3.719-1.514-6.448-.59-8.021 1.057-6.744 3.442-2.623 15.508-2.623 15.508s.141-6.283 2.458-9.168a43.174 43.174 0 0 0 6.268.78 48.318 48.318 0 0 0 6.8-.78c2.517 1.5 1.927 9.168 1.927 9.168s2.655-6.689.208-11.508" transform="translate(-175.336 -43.444)" style="fill:#040405"/>
                        <path id="Path_343885" data-name="Path 343885" d="M276.684 218.33c0 .41-.162.743-.362.743s-.362-.333-.362-.743.162-.743.362-.743.362.333.362.743" transform="translate(-236.598 -183.904)" style="fill:#4c0c0c"/>
                        <path id="Path_343886" data-name="Path 343886" d="M343.627 218.33c0 .41-.162.743-.362.743s-.362-.333-.362-.743.162-.743.362-.743.362.333.362.743" transform="translate(-297.029 -183.904)" style="fill:#4c0c0c"/>
                        <path id="Path_343887" data-name="Path 343887" d="M302.555 232.219a.938.938 0 0 1-.931-.507.849.849 0 0 1 .365-.989c.363-.286.481-2.013.448-3.148l.5-.014c.014.5.051 3.015-.64 3.558-.175.138-.256.292-.211.4s.259.228.611.187l.058.5a1.8 1.8 0 0 1-.2.012" transform="translate(-259.721 -192.907)" style="fill:#920b10"/>
                        <path id="Path_343888" data-name="Path 343888" d="M259.4 201.055s-1.993-1.01-3.142.382c0 0 1.21-1.96 3-.953s.142.571.142.571" transform="translate(-218.812 -168.205)" style="fill:#4c0c0c"/>
                        <path id="Path_343889" data-name="Path 343889" d="M333.016 205.217s1.993 1.01 3.142-.382c0 0-1.21 1.96-3 .953s-.142-.571-.142-.571" transform="translate(-287.48 -172.392)" style="fill:#4c0c0c"/>
                        <path id="Path_343890" data-name="Path 343890" d="M287.156 285.943a2.8 2.8 0 0 1-2.7-1.566l.468-.188-.234.094.233-.1a2.311 2.311 0 0 0 2.237 1.252 1.978 1.978 0 0 0 2.064-1.227l.484.14a2.5 2.5 0 0 1-2.548 1.591" transform="translate(-244.264 -244.026)" style="fill:#920b10"/>
                    </g>
                </g>
                <g id="Group_200501" data-name="Group 200501" transform="translate(0 24.725)">
                    <g id="Group_200500" data-name="Group 200500" style="clip-path:url(#clip-path-6)">
                        <path id="Path_343891" data-name="Path 343891" d="M812.452 984.217s5.353 9.253 12.7 10.282-20.129 7.186-33.508-3.09z" transform="translate(-714.633 -888.472)" style="fill:#fde5d6"/>
                    </g>
                </g>
                <g id="Group_200506" data-name="Group 200506" transform="translate(48.131 78.972)">
                    <g id="Group_200505" data-name="Group 200505" style="clip-path:url(#clip-path-13)">
                        <path id="Path_343892" data-name="Path 343892" d="M555.2 587.852a30.217 30.217 0 1 1-30.217-30.217 30.217 30.217 0 0 1 30.217 30.217" transform="translate(-494.768 -557.635)" style="fill:#fde5d6"/>
                        <path id="Path_343893" data-name="Path 343893" d="m761.366 899.063-1.255-.579v-3.991h-8.058v3.991l-1.261.544.336 11.319h.925v1.735h8.058v-1.735h.92z" transform="translate(-725.885 -861.723)" style="fill:#dd7734"/>
                        <g id="Group_200504" data-name="Group 200504" transform="translate(26.167 32.77)" style="mix-blend-mode:multiply;isolation:isolate">
                            <g id="Group_200503" data-name="Group 200503">
                                <g id="Group_200502" data-name="Group 200502" style="clip-path:url(#clip-path-14)">
                                    <path id="Path_343894" data-name="Path 343894" d="m763.752 896.614 8.1 1.61-.042-3.731h-8.058z" transform="translate(-763.752 -894.493)" style="fill:#e4452d"/>
                                </g>
                            </g>
                        </g>
                        <path id="Path_343895" data-name="Path 343895" d="M637.116 960.439c-.409-4.427-1.528-8.616-2.186-12.471-.643-3.763-6.156-3.764-12.709-6.226l-.3 1.125a5.261 5.261 0 0 1-5 3.912c-3.558 0-4.916-3.091-5.337-4.429l-.162-.607c-6.554 2.462-12.066 2.464-12.709 6.226-.659 3.855-1.777 8.044-2.187 12.471l20.318 6.849z" transform="translate(-586.627 -904.375)" style="fill:#13a2f8"/>
                        <path id="Path_343896" data-name="Path 343896" d="m792.171 1016.99-.385-17.215h-2.354l-.376 17.215z" transform="translate(-760.428 -956.763)" style="fill:#56d4fc"/>
                        <path id="Path_343897" data-name="Path 343897" d="m789.073 973.1-.774 1.482h-2.354l-.751-1.482 1.939-1.585z" transform="translate(-756.942 -931.251)" style="fill:#56d4fc"/>
                        <path id="Path_343898" data-name="Path 343898" d="m738.759 932.833-2.644 1.317 4.237 5.055 2.478-2.609-3.076-2.843z" transform="translate(-712.637 -896.334)" style="fill:#183f5e"/>
                        <path id="Path_343899" data-name="Path 343899" d="m809.218 932.846-4.073 3.761 2.478 2.611 4.236-5.058z" transform="translate(-774.952 -896.346)" style="fill:#183f5e"/>
                        <path id="Path_343900" data-name="Path 343900" d="M698.562 703.359a8.58 8.58 0 0 0 1.839 4.211 9.43 9.43 0 0 1 .572-4.555 6.5 6.5 0 0 0 .48-1.448 2.449 2.449 0 0 0-.438-1.727c-.488-.683-.856-.473-1.369.076a4.5 4.5 0 0 0-1.085 3.442" transform="translate(-678.719 -685.619)" style="fill:#040405"/>
                        <path id="Path_343901" data-name="Path 343901" d="m720.571 665.492.273-3.546c0-4.636-4.432-8.393-9.065-8.393s-9.065 3.757-9.065 8.393l.272 3.542a1.644 1.644 0 0 0-.689.349 1.672 1.672 0 0 0-.591 1.279v1.746a1.677 1.677 0 0 0 1.668 1.678c0 4.378 5.261 8.529 8.4 8.529s8.4-4.15 8.4-8.528a1.678 1.678 0 0 0 1.667-1.678v-1.746a1.676 1.676 0 0 0-1.278-1.625" transform="translate(-681.575 -644.222)" style="fill:#dd7734"/>
                        <path id="Path_343902" data-name="Path 343902" d="M709.424 645.052a12.166 12.166 0 0 0-4.493.484c-2.322.7-4.459 2.109-6.878 2.3a4.4 4.4 0 0 0 3.089.983 6.15 6.15 0 0 1-3.576.609 3.75 3.75 0 0 0 1.165 2.083 5.068 5.068 0 0 0 3.446 1.207 10.257 10.257 0 0 0 3.628-.805 16 16 0 0 1 2.18-.769 8.992 8.992 0 0 1 2.667-.128 8.252 8.252 0 0 1 2.144.393 5.735 5.735 0 0 1 3.014 2.574 6.959 6.959 0 0 1 .849 3.9 5.158 5.158 0 0 0 1.021-4.723 11.809 11.809 0 0 0-1.4-3.245 14.927 14.927 0 0 0-1.264-2.422 8.475 8.475 0 0 0-5.588-2.436" transform="translate(-677.838 -636.513)" style="fill:#040405"/>
                        <path id="Path_343903" data-name="Path 343903" d="M708.45 717.248a12.121 12.121 0 0 1-.673-2.932 5.866 5.866 0 0 1 .468-2.946c.193-.412.77-1.032 1.224-.53.364.4-.031 1.311-.125 1.745q-.5 2.32-.894 4.663" transform="translate(-687.035 -695.767)" style="fill:#040405"/>
                        <path id="Path_343904" data-name="Path 343904" d="M768.324 781.838c0 .411-.162.743-.362.743s-.362-.333-.362-.743.162-.743.362-.743.362.333.362.743" transform="translate(-741.059 -759.357)" style="fill:#4c0c0c"/>
                        <path id="Path_343905" data-name="Path 343905" d="M835.268 781.838c0 .411-.162.743-.362.743s-.362-.333-.362-.743.162-.743.362-.743.362.333.362.743" transform="translate(-801.49 -759.357)" style="fill:#4c0c0c"/>
                        <path id="Path_343906" data-name="Path 343906" d="M794.2 795.728a.939.939 0 0 1-.931-.507.849.849 0 0 1 .365-.99c.364-.286.481-2.013.448-3.148l.5-.014c.014.5.051 3.015-.64 3.558-.175.138-.256.292-.211.4s.26.226.611.187l.058.5a1.75 1.75 0 0 1-.2.012" transform="translate(-764.182 -768.36)" style="fill:#920b10"/>
                        <path id="Path_343907" data-name="Path 343907" d="M749.666 760.415a1.661 1.661 0 0 1 .618-.027c.146.031.282.1.427.136a.8.8 0 0 0 .794-.235.616.616 0 0 0 0-.8.923.923 0 0 0-.7-.208c-.885.022-2.328.6-2.62 1.53.2.055.443-.145.636-.209a5.673 5.673 0 0 1 .848-.19" transform="translate(-723.53 -739.667)" style="fill:#4c0c0c"/>
                        <path id="Path_343908" data-name="Path 343908" d="M829.33 760.415a1.661 1.661 0 0 0-.618-.027c-.146.031-.282.1-.427.136a.8.8 0 0 1-.794-.235.616.616 0 0 1 0-.8.924.924 0 0 1 .7-.208c.885.022 2.328.6 2.62 1.53-.2.055-.443-.145-.636-.209a5.677 5.677 0 0 0-.848-.19" transform="translate(-794.993 -739.667)" style="fill:#4c0c0c"/>
                        <path id="Path_343909" data-name="Path 343909" d="M779.731 856.307h4.632s-1.017 1.982-2.485 1.982-2.147-1.982-2.147-1.982" transform="translate(-752.01 -827.252)" style="fill:#fff"/>
                        <path id="Path_343910" data-name="Path 343910" d="M729.272 759.983h-1.817a5.369 5.369 0 0 0-2.5-.493c-1.871 0-3.141.358-3.792 1.059a2.472 2.472 0 0 0-2.569 0c-.653-.7-1.921-1.054-3.788-1.054a5.369 5.369 0 0 0-2.5.493h-1.83v1.309l.6.211a3.032 3.032 0 0 0-.087.734c0 1.627.4 3.789 3.819 3.789 3.057 0 3.859-1.881 4.24-3.721a2.222 2.222 0 0 0 .025-.794 1.473 1.473 0 0 1 .8-.179 1.452 1.452 0 0 1 .814.186 2.229 2.229 0 0 0 .026.787c.381 1.84 1.183 3.721 4.241 3.721 3.423 0 3.819-2.162 3.819-3.789a3.018 3.018 0 0 0-.088-.738l.589-.207zm-10.885 2.186c-.4 1.912-1.157 3.186-3.583 3.186-2.766 0-3.147-1.5-3.147-3.117 0-.513 0-2.075 3.147-2.075 2.172 0 3.027.491 3.363.9a1.264 1.264 0 0 1 .22 1.1m6.565 3.186c-2.426 0-3.187-1.273-3.583-3.186a1.263 1.263 0 0 1 .22-1.1c.336-.412 1.191-.9 3.363-.9 3.147 0 3.147 1.562 3.147 2.075 0 1.619-.381 3.117-3.147 3.117" transform="translate(-689.487 -739.853)" style="fill:#0a243a"/>
                    </g>
                </g>
            </g>
        </g>
    </g>
</svg>
